<svg
  width="96"
  height="28"
  viewBox="0 0 96 28"
  fill="none"
  xmlns="http://www.w3.org/2000/svg"
>
  <path
    d="M90.3767 21.4261C89.2327 21.4261 88.2353 21.2427 87.3847 20.8761C86.534 20.5094 85.874 19.9961 85.4047 19.3361C84.95 18.6761 84.7227 17.8987 84.7227 17.0041V16.4541C84.7227 16.3807 84.7447 16.3221 84.7887 16.2781C84.8473 16.2194 84.9133 16.1901 84.9867 16.1901H86.9447C87.018 16.1901 87.0767 16.2194 87.1207 16.2781C87.1793 16.3221 87.2087 16.3807 87.2087 16.4541V16.8721C87.2087 17.5467 87.5093 18.1114 88.1107 18.5661C88.712 19.0061 89.5333 19.2261 90.5747 19.2261C91.4693 19.2261 92.144 19.0354 92.5987 18.6541C93.0533 18.2727 93.2807 17.7814 93.2807 17.1801C93.2807 16.7694 93.156 16.4247 92.9067 16.1461C92.6573 15.8527 92.298 15.5887 91.8287 15.3541C91.374 15.1194 90.6847 14.8261 89.7607 14.4741C88.7193 14.0927 87.876 13.7334 87.2307 13.3961C86.5853 13.0587 86.0427 12.6041 85.6027 12.0321C85.1773 11.4454 84.9647 10.7194 84.9647 9.85407C84.9647 8.56341 85.434 7.54407 86.3727 6.79607C87.3113 6.04807 88.5653 5.67407 90.1347 5.67407C91.2347 5.67407 92.2027 5.86474 93.0387 6.24607C93.8893 6.62741 94.5493 7.16274 95.0187 7.85207C95.488 8.52674 95.7227 9.31141 95.7227 10.2061V10.5801C95.7227 10.6534 95.6933 10.7194 95.6347 10.7781C95.5907 10.8221 95.532 10.8441 95.4587 10.8441H93.4787C93.4053 10.8441 93.3393 10.8221 93.2807 10.7781C93.2367 10.7194 93.2147 10.6534 93.2147 10.5801V10.3381C93.2147 9.64874 92.9287 9.0694 92.3567 8.60007C91.7993 8.11607 91.022 7.87407 90.0247 7.87407C89.218 7.87407 88.5873 8.04274 88.1327 8.38007C87.6927 8.71741 87.4727 9.19407 87.4727 9.81007C87.4727 10.2501 87.59 10.6094 87.8247 10.8881C88.0593 11.1667 88.4113 11.4234 88.8807 11.6581C89.35 11.8781 90.076 12.1641 91.0587 12.5161C92.1 12.9121 92.9287 13.2714 93.5447 13.5941C94.1753 13.9167 94.7107 14.3714 95.1507 14.9581C95.6053 15.5301 95.8327 16.2487 95.8327 17.1141C95.8327 18.4341 95.3413 19.4827 94.3587 20.2601C93.3907 21.0374 92.0633 21.4261 90.3767 21.4261Z"
    fill="#EF3E23"
  />
  <path
    d="M81.5892 21.2501C81.4425 21.2501 81.3472 21.1768 81.3032 21.0301L80.5772 18.6761C80.5479 18.6174 80.5112 18.5881 80.4672 18.5881H74.6592C74.6152 18.5881 74.5785 18.6174 74.5492 18.6761L73.8232 21.0301C73.7792 21.1768 73.6839 21.2501 73.5372 21.2501H71.3372C71.2492 21.2501 71.1832 21.2281 71.1392 21.1841C71.0952 21.1254 71.0879 21.0448 71.1172 20.9421L75.8912 6.0701C75.9352 5.92343 76.0305 5.8501 76.1772 5.8501H78.9272C79.0739 5.8501 79.1692 5.92343 79.2132 6.0701L84.0092 20.9421C84.0239 20.9714 84.0312 21.0081 84.0312 21.0521C84.0312 21.1841 83.9505 21.2501 83.7892 21.2501H81.5892ZM75.2312 16.4541C75.2165 16.5421 75.2459 16.5861 75.3192 16.5861H79.7852C79.8732 16.5861 79.9025 16.5421 79.8732 16.4541L77.6072 9.0841C77.5925 9.02543 77.5705 8.9961 77.5412 8.9961C77.5119 8.9961 77.4899 9.02543 77.4752 9.0841L75.2312 16.4541Z"
    fill="#EF3E23"
  />
  <path
    d="M59.1566 21.2501C59.0832 21.2501 59.0172 21.2281 58.9586 21.1841C58.9146 21.1254 58.8926 21.0594 58.8926 20.9861V6.1141C58.8926 6.04076 58.9146 5.9821 58.9586 5.9381C59.0172 5.87943 59.0832 5.8501 59.1566 5.8501H61.1806C61.2539 5.8501 61.3126 5.87943 61.3566 5.9381C61.4152 5.9821 61.4446 6.04076 61.4446 6.1141V18.9401C61.4446 19.0134 61.4812 19.0501 61.5546 19.0501H68.9246C68.9979 19.0501 69.0566 19.0794 69.1006 19.1381C69.1592 19.1821 69.1886 19.2408 69.1886 19.3141V20.9861C69.1886 21.0594 69.1592 21.1254 69.1006 21.1841C69.0566 21.2281 68.9979 21.2501 68.9246 21.2501H59.1566Z"
    fill="#EF3E23"
  />
  <path
    d="M56.2729 5.8501C56.3463 5.8501 56.4049 5.87943 56.4489 5.9381C56.5076 5.9821 56.5369 6.04076 56.5369 6.1141V7.8081C56.5369 7.88143 56.5076 7.94743 56.4489 8.0061C56.4049 8.0501 56.3463 8.0721 56.2729 8.0721H52.2249C52.1516 8.0721 52.1149 8.10876 52.1149 8.1821V20.9861C52.1149 21.0594 52.0856 21.1254 52.0269 21.1841C51.9829 21.2281 51.9243 21.2501 51.8509 21.2501H49.8269C49.7536 21.2501 49.6876 21.2281 49.6289 21.1841C49.5849 21.1254 49.5629 21.0594 49.5629 20.9861V8.1821C49.5629 8.10876 49.5263 8.0721 49.4529 8.0721H45.5589C45.4856 8.0721 45.4196 8.0501 45.3609 8.0061C45.3169 7.94743 45.2949 7.88143 45.2949 7.8081V6.1141C45.2949 6.04076 45.3169 5.9821 45.3609 5.9381C45.4196 5.87943 45.4856 5.8501 45.5589 5.8501H56.2729Z"
    fill="#EF3E23"
  />
  <path
    d="M43.1537 21.2501C43.007 21.2501 42.9117 21.1768 42.8677 21.0301L42.1417 18.6761C42.1123 18.6174 42.0757 18.5881 42.0317 18.5881H36.2237C36.1797 18.5881 36.143 18.6174 36.1137 18.6761L35.3877 21.0301C35.3437 21.1768 35.2483 21.2501 35.1017 21.2501H32.9017C32.8137 21.2501 32.7477 21.2281 32.7037 21.1841C32.6597 21.1254 32.6523 21.0448 32.6817 20.9421L37.4557 6.0701C37.4997 5.92343 37.595 5.8501 37.7417 5.8501H40.4917C40.6383 5.8501 40.7337 5.92343 40.7777 6.0701L45.5737 20.9421C45.5883 20.9714 45.5957 21.0081 45.5957 21.0521C45.5957 21.1841 45.515 21.2501 45.3537 21.2501H43.1537ZM36.7957 16.4541C36.781 16.5421 36.8103 16.5861 36.8837 16.5861H41.3497C41.4377 16.5861 41.467 16.5421 41.4377 16.4541L39.1717 9.0841C39.157 9.02543 39.135 8.9961 39.1057 8.9961C39.0763 8.9961 39.0543 9.02543 39.0397 9.0841L36.7957 16.4541Z"
    fill="#EF3E23"
  />
  <path
    fill-rule="evenodd"
    clip-rule="evenodd"
    d="M15.5 21.75C20.7467 21.75 25 17.4967 25 12.25C25 7.00329 20.7467 2.75 15.5 2.75C10.2533 2.75 6 7.00329 6 12.25C6 17.4967 10.2533 21.75 15.5 21.75ZM15.5 23.75C21.8513 23.75 27 18.6013 27 12.25C27 5.89873 21.8513 0.75 15.5 0.75C9.14873 0.75 4 5.89873 4 12.25C4 18.6013 9.14873 23.75 15.5 23.75Z"
    fill="#EF3E23"
  />
  <path
    fill-rule="evenodd"
    clip-rule="evenodd"
    d="M13.5 25.2584C11.9887 25.2584 10.4922 24.9607 9.09592 24.3824C7.69966 23.804 6.43098 22.9563 5.36233 21.8877C4.29368 20.819 3.44597 19.5503 2.86762 18.1541C2.28927 16.7578 1.9916 15.2613 1.9916 13.75H0C0 14.421 0.0500168 15.0894 0.14897 15.75C0.311473 16.8348 0.605954 17.8982 1.02763 18.9162C1.70606 20.5541 2.70047 22.0424 3.95406 23.2959C5.20765 24.5495 6.69588 25.5439 8.33377 26.2224C9.35178 26.644 10.4152 26.9385 11.5 27.101C12.1606 27.2 12.829 27.25 13.5 27.25V25.2584Z"
    fill="#EF3E23"
  />
</svg>
