<svg xmlns="http://www.w3.org/2000/svg" width="24" height="24" viewBox="0 0 24 24" fill="none">
  <path fill-rule="evenodd" clip-rule="evenodd" d="M13.7775 18.2444C18.2081 18.2444 21.7997 14.6528 21.7997 10.2222C21.7997 5.79167 18.2081 2.2 13.7775 2.2C9.34697 2.2 5.7553 5.79167 5.7553 10.2222C5.7553 14.6528 9.34697 18.2444 13.7775 18.2444ZM13.7775 20.4444C19.4231 20.4444 23.9997 15.8678 23.9997 10.2222C23.9997 4.57664 19.4231 0 13.7775 0C8.13194 0 3.5553 4.57664 3.5553 10.2222C3.5553 15.8678 8.13194 20.4444 13.7775 20.4444Z" fill="#EF3E23"/>
  <path fill-rule="evenodd" clip-rule="evenodd" d="M12 21.6629C10.6727 21.6629 9.35839 21.4014 8.13212 20.8935C6.90585 20.3855 5.79163 19.641 4.85309 18.7025C3.91454 17.764 3.17004 16.6497 2.66211 15.4235C2.15417 14.1972 1.89274 12.8829 1.89274 11.5556H0C0 12.2954 0.0684079 13.0318 0.20339 13.7556C0.355934 14.5735 0.593501 15.3754 0.913445 16.1478C1.5165 17.6037 2.40042 18.9266 3.51472 20.0409C4.62902 21.1552 5.95189 22.0391 7.4078 22.6421C8.18021 22.9621 8.98205 23.1997 9.8 23.3522C10.5238 23.4872 11.2602 23.5556 12 23.5556L12 21.6629Z" fill="#EF3E23"/>
</svg>
